{
  "accessors": [
    {
      "bufferView": 2,
      "componentType": 5126,
      "count": 3596,
      "max": [
        0.8676000237464905,
        0.09099999815225601,
        1.340000033378601
      ],
      "min": [
        -0.7390999794006348,
        -15.69909954071045,
        -0.26669999957084656
      ],
      "type": "VEC3"
    },
    {
      "bufferView": 2,
      "byteOffset": 43152,
      "componentType": 5126,
      "count": 3596,
      "max": [
        1.0,
        1.0,
        1.0
      ],
      "min": [
        -1.0,
        -1.0,
        -1.0
      ],
      "type": "VEC3"
    },
    {
      "bufferView": 1,
      "componentType": 5126,
      "count": 3596,
      "max": [
        1.0,
        1.0
      ],
      "min": [
        -0.08330000191926956,
        -0.0
      ],
      "type": "VEC2"
    },
    {
      "bufferView": 0,
      "componentType": 5125,
      "count": 20736,
      "type": "SCALAR"
    },
    {
      "bufferView": 2,
      "byteOffset": 86304,
      "componentType": 5126,
      "count": 22756,
      "max": [
        2.9523000717163086,
        -0.06909999996423721,
        1.5130000114440918
      ],
      "min": [
        -2.7690000534057617,
        -11.478300094604492,
        -0.746399998664856
      ],
      "type": "VEC3"
    },
    {
      "bufferView": 2,
      "byteOffset": 359376,
      "componentType": 5126,
      "count": 22756,
      "max": [
        0.9999998807907104,
        0.9999996423721313,
        0.9998608827590942
      ],
      "min": [
        -0.9999948740005493,
        -0.9999996423721313,
        -0.9996747374534607
      ],
      "type": "VEC3"
    },
    {
      "bufferView": 1,
      "byteOffset": 28768,
      "componentType": 5126,
      "count": 22756,
      "max": [
        0.9879999756813049,
        5.555799961090088
      ],
      "min": [
        -3.9663000106811523,
        -3.684000015258789
      ],
      "type": "VEC2"
    },
    {
      "bufferView": 0,
      "byteOffset": 82944,
      "componentType": 5125,
      "count": 136512,
      "type": "SCALAR"
    },
    {
      "bufferView": 2,
      "byteOffset": 632448,
      "componentType": 5126,
      "count": 13892,
      "max": [
        7.509900093078613,
        -10.040800094604492,
        0.7091000080108643
      ],
      "min": [
        -7.377299785614014,
        -15.255900382995605,
        0.05460000038146973
      ],
      "type": "VEC3"
    },
    {
      "bufferView": 2,
      "byteOffset": 799152,
      "componentType": 5126,
      "count": 13892,
      "max": [
        0.999930739402771,
        0.9999575614929199,
        1.0
      ],
      "min": [
        -0.999930739402771,
        -0.999237060546875,
        -0.9999979734420776
      ],
      "type": "VEC3"
    },
    {
      "bufferView": 1,
      "byteOffset": 210816,
      "componentType": 5126,
      "count": 13892,
      "max": [
        4.088200092315674,
        2.862799882888794
      ],
      "min": [
        -10.79889965057373,
        -2.352299928665161
      ],
      "type": "VEC2"
    },
    {
      "bufferView": 0,
      "byteOffset": 628992,
      "componentType": 5125,
      "count": 83328,
      "type": "SCALAR"
    }
  ],
  "asset": {
    "extras": {
      "author": "trelab (https://sketchfab.com/trelab)",
      "license": "CC-BY-4.0 (http://creativecommons.org/licenses/by/4.0/)",
      "source": "https://sketchfab.com/3d-models/hermes-trismegistus-caduceus-a334f79862e34fb98ae5f7b4e2910f76",
      "title": "Hermes Trismegistus' CADUCEUS"
    },
    "generator": "Sketchfab-12.68.0",
    "version": "2.0"
  },
  "bufferViews": [
    {
      "buffer": 0,
      "byteLength": 962304,
      "name": "floatBufferViews",
      "target": 34963
    },
    {
      "buffer": 0,
      "byteLength": 321952,
      "byteOffset": 962304,
      "byteStride": 8,
      "name": "floatBufferViews",
      "target": 34962
    },
    {
      "buffer": 0,
      "byteLength": 965856,
      "byteOffset": 1284256,
      "byteStride": 12,
      "name": "floatBufferViews",
      "target": 34962
    }
  ],
  "buffers": [
    {
      "byteLength": 2250112,
      "uri": "scene.bin"
    }
  ],
  "materials": [
    {
      "doubleSided": true,
      "name": "material_0",
      "pbrMetallicRoughness": {
        "metallicFactor": 0.0,
        "roughnessFactor": 0.6
      }
    }
  ],
  "meshes": [
    {
      "name": "Object_0",
      "primitives": [
        {
          "attributes": {
            "NORMAL": 1,
            "POSITION": 0,
            "TEXCOORD_0": 2
          },
          "indices": 3,
          "material": 0,
          "mode": 4
        }
      ]
    },
    {
      "name": "Object_1",
      "primitives": [
        {
          "attributes": {
            "NORMAL": 5,
            "POSITION": 4,
            "TEXCOORD_0": 6
          },
          "indices": 7,
          "material": 0,
          "mode": 4
        }
      ]
    },
    {
      "name": "Object_2",
      "primitives": [
        {
          "attributes": {
            "NORMAL": 9,
            "POSITION": 8,
            "TEXCOORD_0": 10
          },
          "indices": 11,
          "material": 0,
          "mode": 4
        }
      ]
    }
  ],
  "nodes": [
    {
      "children": [
        1
      ],
      "matrix": [
        1.0,
        0.0,
        0.0,
        0.0,
        0.0,
        2.220446049250313e-16,
        -1.0,
        0.0,
        0.0,
        1.0,
        2.220446049250313e-16,
        0.0,
        0.0,
        0.0,
        0.0,
        1.0
      ],
      "name": "Sketchfab_model"
    },
    {
      "children": [
        2,
        3,
        4
      ],
      "name": "16985_Caduceus_V1_NEW.obj.cleaner.materialmerger.gles"
    },
    {
      "mesh": 0,
      "name": "Object_2"
    },
    {
      "mesh": 1,
      "name": "Object_3"
    },
    {
      "mesh": 2,
      "name": "Object_4"
    }
  ],
  "scene": 0,
  "scenes": [
    {
      "name": "Sketchfab_Scene",
      "nodes": [
        0
      ]
    }
  ]
}
